
        <svg xmlns="http://www.w3.org/2000/svg" xmlns:xlink="http://www.w3.org/1999/xlink" version="1.1" width="3161.9433198380566" 
        height="870.4419927716962" viewBox="0 0 3161.9433198380566 870.4419927716962">
			<rect fill="#2f0069" width="3161.9433198380566" height="870.4419927716962"/>
			<g transform="scale(8.097165991902834) translate(10, 10)">
				<defs id="SvgjsDefs2876"><linearGradient id="SvgjsLinearGradient2883"><stop id="SvgjsStop2884" stop-color="#905e26" offset="0"></stop><stop id="SvgjsStop2885" stop-color="#f5ec9b" offset="0.5"></stop><stop id="SvgjsStop2886" stop-color="#905e26" offset="1"></stop></linearGradient><linearGradient id="SvgjsLinearGradient2887"><stop id="SvgjsStop2888" stop-color="#905e26" offset="0"></stop><stop id="SvgjsStop2889" stop-color="#f5ec9b" offset="0.5"></stop><stop id="SvgjsStop2890" stop-color="#905e26" offset="1"></stop></linearGradient><linearGradient id="SvgjsLinearGradient2891"><stop id="SvgjsStop2892" stop-color="#905e26" offset="0"></stop><stop id="SvgjsStop2893" stop-color="#f5ec9b" offset="0.5"></stop><stop id="SvgjsStop2894" stop-color="#905e26" offset="1"></stop></linearGradient></defs><g id="SvgjsG2877" featureKey="symbolFeature-0" transform="matrix(0.8749958872795105,0,0,0.8749958872795105,0.0002858029197859934,0)" fill="url(#SvgjsLinearGradient2883)"><g xmlns="http://www.w3.org/2000/svg"><g><path d="M78.984,71.209c-0.193-0.194-0.45-0.292-0.707-0.292c-0.256,0-0.512,0.098-0.707,0.292l-6.361,6.362    c-0.389,0.389-0.389,1.025,0,1.414l2.12,2.12c0.194,0.194,0.45,0.292,0.707,0.292s0.513-0.098,0.707-0.292l6.362-6.362    c0.389-0.389,0.389-1.025,0-1.414L78.984,71.209z M74.036,78.984l-0.706-0.706l4.947-4.948l0.707,0.706L74.036,78.984z     M57.525,25.776l-1.932-0.518l-1.811,6.76l1.932,0.518L57.525,25.776z M46.218,32.02l-1.812-6.761l-1.932,0.518l1.812,6.761    L46.218,32.02z M68.628,32.785l-1.414-1.414l-4.948,4.948l1.414,1.414L68.628,32.785z M35.507,84.994l-20.5-20.502    c-0.583-0.583-1.353-0.874-2.122-0.874c-0.769,0-1.537,0.291-2.12,0.874L0.868,74.39c-0.913,0.913-1.102,2.274-0.586,3.385    c0.013,0.073,0.033,0.146,0.076,0.219c2.222,3.769,5.505,7.972,9.568,12.036c4.079,4.078,8.298,7.37,12.078,9.594    c0.038,0.022,0.075,0.025,0.112,0.039C22.551,99.887,23.03,100,23.509,100c0.762,0,1.522-0.287,2.102-0.866l9.897-9.898    C36.674,88.069,36.674,86.16,35.507,84.994z M34.093,87.821l-9.897,9.898C23.953,97.964,23.661,98,23.509,98    c-0.166,0-0.331-0.04-0.477-0.115l-0.11-0.057l-0.068-0.025c-3.754-2.231-7.732-5.405-11.515-9.188    c-3.753-3.754-6.906-7.699-9.13-11.42l-0.005-0.028l-0.108-0.234c-0.149-0.32-0.149-0.794,0.186-1.129l9.896-9.897    c0.251-0.251,0.55-0.288,0.706-0.288c0.157,0,0.457,0.037,0.708,0.288l20.501,20.503c0.251,0.251,0.289,0.55,0.289,0.705    C34.383,87.271,34.345,87.569,34.093,87.821z M37.735,36.319l-4.949-4.948l-1.414,1.414l4.949,4.948L37.735,36.319z     M99.719,22.225c-0.014-0.072-0.033-0.145-0.076-0.218c-2.222-3.769-5.505-7.973-9.568-12.036    c-4.078-4.078-8.297-7.37-12.077-9.595c-0.037-0.021-0.075-0.024-0.112-0.039C77.449,0.112,76.971,0,76.492,0    c-0.762,0-1.523,0.286-2.103,0.865l-9.897,9.897c-1.166,1.168-1.166,3.076,0,4.243l20.502,20.501    c0.582,0.583,1.352,0.875,2.12,0.875s1.538-0.292,2.121-0.875l9.897-9.897C100.045,24.696,100.233,23.335,99.719,22.225z     M97.719,24.195l-9.896,9.896c-0.252,0.252-0.552,0.29-0.708,0.29c-0.155,0-0.455-0.038-0.706-0.289L65.906,13.592    c-0.383-0.384-0.383-1.031,0-1.415l9.897-9.896C76.047,2.036,76.34,2,76.492,2c0.166,0,0.33,0.039,0.476,0.114l0.089,0.046    l0.086,0.034c3.756,2.233,7.734,5.408,11.518,9.19c3.75,3.751,6.902,7.694,9.129,11.417l0.005,0.027l0.11,0.237    C98.053,23.387,98.053,23.86,97.719,24.195z M67.979,46.217l6.761-1.811l-0.518-1.932l-6.761,1.811L67.979,46.217z M67.461,55.714    l6.761,1.811l0.518-1.932l-6.761-1.811L67.461,55.714z M32.539,44.286l-6.76-1.811l-0.518,1.932l6.76,1.811L32.539,44.286z     M50.001,20.006c-7.676,0-15.353,2.929-21.209,8.784c-11.713,11.714-11.712,30.705,0,42.418    c5.857,5.857,13.533,8.785,21.209,8.785c7.675,0,15.352-2.929,21.208-8.784c11.713-11.714,11.713-30.705,0-42.419    C65.354,22.934,57.678,20.006,50.001,20.006z M69.795,69.795c-5.287,5.287-12.316,8.198-19.794,8.198    c-7.477,0-14.507-2.912-19.795-8.199c-10.914-10.915-10.914-28.675,0-39.59c5.287-5.287,12.317-8.198,19.795-8.198    c7.477,0,14.506,2.911,19.793,8.198C80.709,41.119,80.709,58.88,69.795,69.795z M90.384,35.065l-7.27,7.271    c-1.382-6-4.403-11.699-9.077-16.374c-4.675-4.674-10.373-7.694-16.373-9.077l7.271-7.271c0,0-1.636-1.636-2.21-2.209    C62.65,7.33,62.48,7.297,62.242,7.297c-1.576,0-6.145,1.434-6.145,1.434s-5.328,4.139-8.91,7.4    c-7.74,0.639-15.303,3.91-21.224,9.832c-5.921,5.922-9.193,13.484-9.832,21.224c-3.262,3.582-7.399,8.91-7.399,8.91    s-1.899,6.054-1.326,6.628c0.575,0.575,2.209,2.21,2.209,2.21l7.271-7.271c1.383,6,4.403,11.698,9.078,16.373    c4.675,4.675,10.373,7.695,16.372,9.077l-7.271,7.272c0,0,1.635,1.635,2.21,2.208c0.075,0.075,0.246,0.108,0.484,0.108    c1.577,0,6.143-1.433,6.143-1.433s5.328-4.139,8.911-7.401c7.739-0.639,15.302-3.911,21.223-9.832    c5.921-5.922,9.193-13.484,9.833-21.224c3.262-3.581,7.398-8.909,7.398-8.909s1.9-6.054,1.326-6.629    C92.019,36.699,90.384,35.065,90.384,35.065z M9.616,62.106l-0.284-0.284c0.138-0.985,0.667-3.034,1.202-4.783    c0.729-0.931,3.135-3.978,5.482-6.702c0.017,1.658,0.154,3.314,0.412,4.957L9.616,62.106z M57.04,10.532    c1.718-0.525,3.769-1.058,4.785-1.199l0.28,0.281l-6.811,6.813c-1.643-0.258-3.299-0.396-4.957-0.412    C53.063,13.668,56.109,11.262,57.04,10.532z M42.96,89.468c-1.714,0.524-3.76,1.055-4.785,1.197l-0.28-0.28l6.812-6.813    c1.642,0.258,3.298,0.396,4.956,0.412C46.937,86.332,43.891,88.738,42.96,89.468z M81.764,53.629    c-0.787,6.944-3.828,13.679-9.142,18.993c-5.167,5.168-11.792,8.341-18.946,9.154l-0.016-0.016c-1.225,0.14-2.455,0.21-3.686,0.21    c-1.99,0-3.979-0.184-5.941-0.554l-0.014,0.014c-6.266-1.179-12.033-4.202-16.64-8.809c-4.727-4.727-7.658-10.578-8.803-16.7    c-0.135-0.723-0.241-1.45-0.326-2.179c-0.011-0.093-0.023-0.186-0.033-0.277c-0.081-0.754-0.138-1.51-0.165-2.267    c-0.001-0.034-0.001-0.068-0.002-0.103c-0.052-1.578,0.01-3.16,0.188-4.731c0.787-6.942,3.828-13.676,9.14-18.988    c5.167-5.166,11.792-8.341,18.946-9.154l0.016,0.016c1.225-0.14,2.457-0.21,3.689-0.21c1.989,0,3.978,0.183,5.94,0.553    l0.014-0.014c6.266,1.179,12.033,4.201,16.641,8.809c4.733,4.734,7.666,10.597,8.807,16.729c0.132,0.712,0.236,1.428,0.32,2.146    c0.011,0.095,0.023,0.189,0.033,0.284c0.081,0.753,0.138,1.508,0.165,2.263c0.001,0.036,0.001,0.072,0.003,0.107    C82.003,50.481,81.941,52.061,81.764,53.629z M89.467,42.961c-0.73,0.931-3.135,3.977-5.482,6.701    c-0.017-1.658-0.154-3.314-0.412-4.957l6.812-6.812l0.284,0.284C90.53,39.163,90.002,41.212,89.467,42.961z M53.777,47.313    l-3.124,1.339l-3.31-9.926l-1.897,0.633l3.361,10.084l-14.825,6.354l0.788,1.838l14.671-6.288l0.953,2.857l1.898-0.633    l-0.855-2.565l24.609,0.101l0.008-2l-21.547-0.088L53.777,47.313z M31.372,67.215l1.414,1.414l4.949-4.95l-1.414-1.414    L31.372,67.215z M32.021,53.782l-6.76,1.811l0.518,1.932l6.76-1.811L32.021,53.782z M62.266,63.679l4.948,4.95l1.414-1.414    l-4.948-4.95L62.266,63.679z M42.475,74.222l1.932,0.518l1.812-6.76l-1.932-0.518L42.475,74.222z M53.782,67.979l1.812,6.76    l1.932-0.518l-1.812-6.76L53.782,67.979z"></path></g></g></g><g id="SvgjsG2878" featureKey="nameFeature-0" transform="matrix(1.4266331195831299,0,0,1.4266331195831299,103.92396639621586,-13.303992918622981)" fill="url(#SvgjsLinearGradient2887)"><path d="M24 11.428999999999998 l7.4286 0 l0 28.571 l-7.4286 0 l0 -16 l-5.0286 9.7143 l-3.7143 0 l-4.9714 -9.7143 l0 16 l-7.4286 0 l0 -28.571 l7.4286 0 l6.8571 12.971 z M57.99971428571428 11.428999999999998 l4.2857 4.2857 l0 20 l-4.2857 4.2857 l-16.571 0 l-4.2857 -4.2857 l0 -20 l4.2857 -4.2857 l16.571 0 z M54.85671428571429 33.7143 l0 -16 l-10.286 0 l0 16 l10.286 0 z M93.71385714285714 15.713999999999999 l0 10 l-4.2857 4.2857 l4.2857 6.5714 l0 3.4286 l-6.8571 0 l-5.9429 -9.7143 l-5.4857 0 l0 9.7143 l-7.4286 0 l0 -28.571 l21.429 0 z M86.28585714285714 24 l0 -6.2857 l-10.857 0 l0 6.2857 l10.857 0 z M117.42842857142857 17.714 l-10.571 0 l0 16 l10.857 0 l0 -4.8571 l-6.5714 0 l0 -6.2857 l14 0 l0 13.143 l-4.2857 4.2857 l-17.143 0 l-4.2857 -4.2857 l0 -20 l4.2857 -4.2857 l17.143 0 l4.2857 4.2857 l0 4.2857 l-5.4286 0 z M130.8571 40 l0 -24.286 l4.2857 -4.2857 l16.571 0 l4.2857 4.2857 l0 24.286 l-7.4286 0 l0 -8 l-10.286 0 l0 8 l-7.4286 0 z M138.286 25.714 l10.286 0 l0 -8 l-10.286 0 l0 8 z M179.42814285714286 11.428999999999998 l7.4286 0 l0 28.571 l-6.5714 0 l-11.143 -16 l0 16 l-7.4286 0 l0 -28.571 l6.5714 0 l11.143 15.886 l0 -15.886 z"></path></g><g id="SvgjsG2879" featureKey="nameFeature-1" transform="matrix(1.098719835281372,0,0,1.098719835281372,104.86062861288636,41.44350149880297)" fill="url(#SvgjsLinearGradient2891)"><path d="M20.629 11.428999999999998 l7.4286 0 l0 28.571 l-7.4286 0 l0 -11.143 l-10.286 0 l0 11.143 l-7.4857 0 l0.057143 -28.571 l7.4286 0 l0 11.143 l10.286 0 l0 -11.143 z M54.62828571428571 11.428999999999998 l4.2857 4.2857 l0 20 l-4.2857 4.2857 l-16.571 0 l-4.2857 -4.2857 l0 -20 l4.2857 -4.2857 l16.571 0 z M51.485285714285716 33.7143 l0 -16 l-10.286 0 l0 16 l10.286 0 z M90.34242857142857 15.713999999999999 l0 10 l-4.2857 4.2857 l4.2857 6.5714 l0 3.4286 l-6.8571 0 l-5.9429 -9.7143 l-5.4857 0 l0 9.7143 l-7.4286 0 l0 -28.571 l21.429 0 z M82.91442857142857 24 l0 -6.2857 l-10.857 0 l0 6.2857 l10.857 0 z M116.914 11.428999999999998 l4.2857 4.2857 l0 20 l-4.2857 4.2857 l-16.571 0 l-4.2857 -4.2857 l0 -20 l4.2857 -4.2857 l16.571 0 z M113.771 33.7143 l0 -16 l-10.286 0 l0 16 l10.286 0 z M126.91424285714287 35.7143 l0 -24.286 l7.4286 0 l0 22.286 l15.429 0 l0 6.2857 l-18.571 0 z M174.91400000000002 11.428999999999998 l4.2857 4.2857 l0 20 l-4.2857 4.2857 l-16.571 0 l-4.2857 -4.2857 l0 -20 l4.2857 -4.2857 l16.571 0 z M171.77100000000002 33.7143 l0 -16 l-10.286 0 l0 16 l10.286 0 z M202.91414285714288 17.714 l-10.571 0 l0 16 l10.857 0 l0 -4.8571 l-6.5714 0 l0 -6.2857 l14 0 l0 13.143 l-4.2857 4.2857 l-17.143 0 l-4.2857 -4.2857 l0 -20 l4.2857 -4.2857 l17.143 0 l4.2857 4.2857 l0 4.2857 l-5.4286 0 z M241.7717142857143 11.428999999999998 l0 3.4286 l-9.7143 15.714 l0 9.4286 l-7.4286 0 l0 -9.4857 l-9.7143 -15.657 l0 -3.4286 l6.5714 0 l6.8571 11.657 l6.8571 -11.657 l6.5714 0 z"></path></g>
			</g>
		</svg>
	